<svg xmlns="http://www.w3.org/2000/svg" version="1.1" xmlns:xlink="http://www.w3.org/1999/xlink" xmlns:svgjs="http://svgjs.dev/svgjs" width="2000" height="1247" viewBox="0 0 2000 1247"><g transform="matrix(1,0,0,1,-1.2121212121212466,0.5048582995951847)"><svg viewBox="0 0 396 247" data-background-color="#ffffff" preserveAspectRatio="xMidYMid meet" height="1247" width="2000" xmlns="http://www.w3.org/2000/svg" xmlns:xlink="http://www.w3.org/1999/xlink"><g id="tight-bounds" transform="matrix(1,0,0,1,0.2400000000000091,-0.09999999999999432)"><svg viewBox="0 0 395.52 247.2" height="247.2" width="395.52"><g><svg></svg></g><g><svg viewBox="0 0 395.52 247.2" height="247.2" width="395.52"><mask id="2a8c82db-0cca-48da-b7c6-156b816d9e43"><rect width="395.52" height="247.2" fill="white"></rect><g transform="matrix(1,0,0,1,27.443389830508465,37.08000000000001)" id="clone"><svg viewBox="0 0 340.63322033898305 173.03999999999996" height="173.03999999999996" width="340.63322033898305"><g><svg viewBox="0 0 340.63322033898305 173.03999999999996" height="173.03999999999996" width="340.63322033898305"><g><svg viewBox="0 0 340.63322033898305 173.03999999999996" height="173.03999999999996" width="340.63322033898305"><g><svg viewBox="0 0 340.63322033898305 173.03999999999996" height="173.03999999999996" width="340.63322033898305"><g id="SvgjsG1002"><svg viewBox="0 0 340.63322033898305 173.03999999999996" height="173.03999999999996" width="340.63322033898305" id="SvgjsSvg1001"><g><svg viewBox="0 0 340.63322033898305 173.03999999999996" height="173.03999999999996" width="340.63322033898305"><g transform="matrix(1,0,0,1,0,0)"><svg width="340.63322033898305" viewBox="-1.25 -38.15 82.3 42.3" height="173.03999999999996" data-palette-color="#d7dbde"><path d="M13.85 1.15Q11.35 1.15 8.8 0.08 6.25-1 4.33-2.9 2.4-4.8 1.75-7.2L1.75-7.2 4.3-8.2Q5.25-5.15 8.03-3.38 10.8-1.6 13.85-1.6L13.85-1.6Q16.15-1.6 18.05-2.58 19.95-3.55 21.05-5.33 22.15-7.1 22.15-9.35L22.15-9.35Q22.15-11.75 20.83-13.3 19.5-14.85 16.35-16.4L16.35-16.4Q12.1-18.45 9.9-19.75 7.7-21.05 6.3-22.83 4.9-24.6 4.9-27.05L4.9-27.05Q4.9-29.45 6.2-31.3 7.5-33.15 9.68-34.15 11.85-35.15 14.35-35.15L14.35-35.15Q16.45-35.15 18.28-34.38 20.1-33.6 21.13-32.23 22.15-30.85 22.05-29.15L22.05-29.15 19.25-29.3Q19.25-30.75 17.68-31.58 16.1-32.4 14.25-32.4L14.25-32.4Q11.65-32.4 9.78-30.9 7.9-29.4 7.9-27.2L7.9-27.2Q7.9-25.5 9.05-24.15 10.2-22.8 11.78-21.88 13.35-20.95 15.75-19.85L15.75-19.85Q16.25-19.6 16.8-19.35 17.35-19.1 17.85-18.8L17.85-18.8Q21.8-16.7 23.48-14.53 25.15-12.35 25.15-9.3L25.15-9.3Q25.15-6.25 23.58-3.88 22-1.5 19.4-0.18 16.8 1.15 13.85 1.15L13.85 1.15ZM38.6 0.35Q33.85 0.35 31.62-2.3 29.4-4.95 29.3-8.8L29.3-8.8 32.15-8.55Q32.15-5.75 33.85-4.1 35.55-2.45 38.75-2.45L38.75-2.45Q42.35-2.45 43.87-4.65 45.4-6.85 45.4-9.8L45.4-9.8 45.4-31.45 45.3-34.2 48.4-34.2 48.4-9.65Q48.4-5.5 46-2.58 43.6 0.35 38.6 0.35L38.6 0.35ZM66.75 1.15Q64.25 1.15 61.7 0.08 59.15-1 57.22-2.9 55.3-4.8 54.65-7.2L54.65-7.2 57.2-8.2Q58.15-5.15 60.92-3.38 63.7-1.6 66.75-1.6L66.75-1.6Q69.05-1.6 70.95-2.58 72.85-3.55 73.95-5.33 75.05-7.1 75.05-9.35L75.05-9.35Q75.05-11.75 73.72-13.3 72.4-14.85 69.25-16.4L69.25-16.4Q65-18.45 62.8-19.75 60.6-21.05 59.2-22.83 57.8-24.6 57.8-27.05L57.8-27.05Q57.8-29.45 59.1-31.3 60.4-33.15 62.57-34.15 64.75-35.15 67.25-35.15L67.25-35.15Q69.35-35.15 71.17-34.38 73-33.6 74.02-32.23 75.05-30.85 74.95-29.15L74.95-29.15 72.15-29.3Q72.15-30.75 70.57-31.58 69-32.4 67.15-32.4L67.15-32.4Q64.55-32.4 62.67-30.9 60.8-29.4 60.8-27.2L60.8-27.2Q60.8-25.5 61.95-24.15 63.1-22.8 64.67-21.88 66.25-20.95 68.65-19.85L68.65-19.85Q69.15-19.6 69.7-19.35 70.25-19.1 70.75-18.8L70.75-18.8Q74.7-16.7 76.37-14.53 78.05-12.35 78.05-9.3L78.05-9.3Q78.05-6.25 76.47-3.88 74.9-1.5 72.3-0.18 69.7 1.15 66.75 1.15L66.75 1.15Z" opacity="1" transform="matrix(1,0,0,1,0,0)" fill="black" class="wordmark-text-0" id="SvgjsPath1000" stroke-width="5" stroke="black" stroke-linejoin="round"></path></svg></g></svg></g></svg></g></svg></g></svg></g></svg></g></svg></g></mask><g mask="url(#2a8c82db-0cca-48da-b7c6-156b816d9e43)"><g><path d="M200.484 247.2c-11.35 0-22.813-2.429-34.39-7.287-11.577-4.903-21.724-11.668-30.44-20.293-8.762-8.626-14.619-18.387-17.57-29.283v0l17.365-6.81c4.313 13.847 12.78 24.788 25.401 32.824 12.576 8.081 25.787 12.122 39.634 12.122v0c10.442 0 19.976-2.225 28.602-6.674 8.626-4.404 15.436-10.646 20.429-18.727 4.994-8.036 7.491-17.161 7.491-27.376v0c0-10.896-2.996-19.862-8.989-26.899-6.038-7.037-16.208-14.074-30.508-21.111v0c-19.295-9.307-33.936-16.911-43.924-22.813-9.988-5.902-18.16-12.893-24.516-20.975-6.356-8.036-9.534-17.615-9.534-28.738v0c0-10.896 2.951-20.543 8.853-28.942 5.902-8.399 13.801-14.868 23.699-19.408 9.852-4.54 20.452-6.81 31.802-6.81v0c9.534 0 18.455 1.748 26.763 5.244 8.263 3.541 14.732 8.422 19.408 14.641 4.631 6.265 6.719 13.257 6.265 20.975v0l-19.067-1.022c0-6.583-3.564-11.758-10.692-15.527-7.173-3.723-14.959-5.584-23.358-5.584v0c-11.804 0-21.951 3.405-30.44 10.215-8.535 6.81-12.803 15.209-12.803 25.197v0c0 7.718 2.61 14.641 7.831 20.77 5.221 6.129 11.418 11.282 18.591 15.459 7.128 4.222 16.14 8.83 27.036 13.824v0c2.27 1.135 4.653 2.27 7.15 3.405 2.497 1.135 4.88 2.383 7.151 3.745v0c17.933 9.534 30.713 19.227 38.339 29.079 7.582 9.897 11.373 21.769 11.373 35.615v0c0 13.847-3.564 26.15-10.692 36.91-7.173 10.805-16.662 19.204-28.465 25.197-11.804 6.038-24.402 9.057-37.795 9.057z" fill="#d7dbde" fill-rule="nonzero" stroke="none" stroke-width="1" stroke-linecap="butt" stroke-linejoin="miter" stroke-miterlimit="10" stroke-dasharray="" stroke-dashoffset="0" font-family="none" font-weight="none" font-size="none" text-anchor="none" style="mix-blend-mode: normal" data-fill-palette-color="tertiary"></path></g></g><g transform="matrix(1,0,0,1,27.443389830508465,37.08000000000001)"><svg viewBox="0 0 340.63322033898305 173.03999999999996" height="173.03999999999996" width="340.63322033898305"><g><svg viewBox="0 0 340.63322033898305 173.03999999999996" height="173.03999999999996" width="340.63322033898305"><g><svg viewBox="0 0 340.63322033898305 173.03999999999996" height="173.03999999999996" width="340.63322033898305"><g><svg viewBox="0 0 340.63322033898305 173.03999999999996" height="173.03999999999996" width="340.63322033898305"><g id="textblocktransform"><svg viewBox="0 0 340.63322033898305 173.03999999999996" height="173.03999999999996" width="340.63322033898305" id="textblock"><g><svg viewBox="0 0 340.63322033898305 173.03999999999996" height="173.03999999999996" width="340.63322033898305"><g transform="matrix(1,0,0,1,0,0)"><svg width="340.63322033898305" viewBox="-1.25 -38.15 82.3 42.3" height="173.03999999999996" data-palette-color="#d7dbde"><path d="M13.85 1.15Q11.35 1.15 8.8 0.08 6.25-1 4.33-2.9 2.4-4.8 1.75-7.2L1.75-7.2 4.3-8.2Q5.25-5.15 8.03-3.38 10.8-1.6 13.85-1.6L13.85-1.6Q16.15-1.6 18.05-2.58 19.95-3.55 21.05-5.33 22.15-7.1 22.15-9.35L22.15-9.35Q22.15-11.75 20.83-13.3 19.5-14.85 16.35-16.4L16.35-16.4Q12.1-18.45 9.9-19.75 7.7-21.05 6.3-22.83 4.9-24.6 4.9-27.05L4.9-27.05Q4.9-29.45 6.2-31.3 7.5-33.15 9.68-34.15 11.85-35.15 14.35-35.15L14.35-35.15Q16.45-35.15 18.28-34.38 20.1-33.6 21.13-32.23 22.15-30.85 22.05-29.15L22.05-29.15 19.25-29.3Q19.25-30.75 17.68-31.58 16.1-32.4 14.25-32.4L14.25-32.4Q11.65-32.4 9.78-30.9 7.9-29.4 7.9-27.2L7.9-27.2Q7.9-25.5 9.05-24.15 10.2-22.8 11.78-21.88 13.35-20.95 15.75-19.85L15.75-19.85Q16.25-19.6 16.8-19.35 17.35-19.1 17.85-18.8L17.85-18.8Q21.8-16.7 23.48-14.53 25.15-12.35 25.15-9.3L25.15-9.3Q25.15-6.25 23.58-3.88 22-1.5 19.4-0.18 16.8 1.15 13.85 1.15L13.85 1.15ZM38.6 0.35Q33.85 0.35 31.62-2.3 29.4-4.95 29.3-8.8L29.3-8.8 32.15-8.55Q32.15-5.75 33.85-4.1 35.55-2.45 38.75-2.45L38.75-2.45Q42.35-2.45 43.87-4.65 45.4-6.85 45.4-9.8L45.4-9.8 45.4-31.45 45.3-34.2 48.4-34.2 48.4-9.65Q48.4-5.5 46-2.58 43.6 0.35 38.6 0.35L38.6 0.35ZM66.75 1.15Q64.25 1.15 61.7 0.08 59.15-1 57.22-2.9 55.3-4.8 54.65-7.2L54.65-7.2 57.2-8.2Q58.15-5.15 60.92-3.38 63.7-1.6 66.75-1.6L66.75-1.6Q69.05-1.6 70.95-2.58 72.85-3.55 73.95-5.33 75.05-7.1 75.05-9.35L75.05-9.35Q75.05-11.75 73.72-13.3 72.4-14.85 69.25-16.4L69.25-16.4Q65-18.45 62.8-19.75 60.6-21.05 59.2-22.83 57.8-24.6 57.8-27.05L57.8-27.05Q57.8-29.45 59.1-31.3 60.4-33.15 62.57-34.15 64.75-35.15 67.25-35.15L67.25-35.15Q69.35-35.15 71.17-34.38 73-33.6 74.02-32.23 75.05-30.85 74.95-29.15L74.95-29.15 72.15-29.3Q72.15-30.75 70.57-31.58 69-32.4 67.15-32.4L67.15-32.4Q64.55-32.4 62.67-30.9 60.8-29.4 60.8-27.2L60.8-27.2Q60.8-25.5 61.95-24.15 63.1-22.8 64.67-21.88 66.25-20.95 68.65-19.85L68.65-19.85Q69.15-19.6 69.7-19.35 70.25-19.1 70.75-18.8L70.75-18.8Q74.7-16.7 76.37-14.53 78.05-12.35 78.05-9.3L78.05-9.3Q78.05-6.25 76.47-3.88 74.9-1.5 72.3-0.18 69.7 1.15 66.75 1.15L66.75 1.15Z" opacity="1" transform="matrix(1,0,0,1,0,0)" fill="#d7dbde" class="wordmark-text-0" data-fill-palette-color="primary" id="text-0"></path></svg></g></svg></g></svg></g></svg></g></svg></g></svg></g></svg></g></svg></g><defs></defs></svg><rect width="395.52" height="247.2" fill="none" stroke="none" visibility="hidden"></rect></g></svg></g></svg>