<svg xmlns="http://www.w3.org/2000/svg" version="1.1" xmlns:xlink="http://www.w3.org/1999/xlink" xmlns:svgjs="http://svgjs.dev/svgjs" width="2000" height="6098" viewBox="0 0 2000 6098"><g transform="matrix(1,0,0,1,-0.3950617283954898,2.468825910931173)"><svg viewBox="0 0 81 247" data-background-color="#ffffff" preserveAspectRatio="xMidYMid meet" height="6098" width="2000" xmlns="http://www.w3.org/2000/svg" xmlns:xlink="http://www.w3.org/1999/xlink"><g id="tight-bounds" transform="matrix(1,0,0,1,0.016000000000019554,-0.09999999999999432)"><svg viewBox="0 0 80.967888 247.2" height="247.2" width="80.967888"><g><svg></svg></g><g><svg viewBox="0 0 80.967888 247.2" height="247.2" width="80.967888"><g transform="matrix(1,0,0,1,0,47.215199999999996)"><svg viewBox="0 0 80.967888 152.7696" height="152.7696" width="80.967888"><g><svg viewBox="0 0 80.967888 152.7696" height="152.7696" width="80.967888"><g><svg viewBox="0 0 80.967888 152.7696" height="152.7696" width="80.967888"><g><svg viewBox="0 0 80.967888 152.7696" height="152.7696" width="80.967888"><g id="textblocktransform"><svg viewBox="0 0 80.967888 152.7696" height="152.7696" width="80.967888" id="textblock"><g><svg viewBox="0 0 80.967888 152.7696" height="152.7696" width="80.967888"><g transform="matrix(1,0,0,1,0,0)"><svg width="80.967888" viewBox="3.1 -35 18.549999999999997 35" height="152.7696" data-palette-color="#7f8cd9"><path d="M18.1 0L3.1 0 3.1-35 18.1-35Q19.55-35 20.6-33.95 21.65-32.9 21.65-31.4L21.65-31.4 21.65-3.6Q21.65-2.1 20.6-1.05 19.55 0 18.1 0L18.1 0ZM7.75-30.35L7.75-4.65 15.25-4.65Q15.95-4.65 16.5-5.18 17.05-5.7 17.05-6.45L17.05-6.45 17.05-28.55Q17.05-29.3 16.5-29.83 15.95-30.35 15.25-30.35L15.25-30.35 7.75-30.35Z" opacity="1" transform="matrix(1,0,0,1,0,0)" fill="#7f8cd9" class="wordmark-text-0" data-fill-palette-color="primary" id="text-0"></path></svg></g></svg></g></svg></g></svg></g><g></g></svg></g></svg></g></svg></g><path d="M0 41.215L0 1 80.968 1 80.968 41.215 67.191 41.215 67.191 14.777 13.777 14.777 13.777 41.215 0 41.215M0 205.985L0 246.2 80.968 246.2 80.968 205.985 67.191 205.985 67.191 232.423 13.777 232.423 13.777 205.985 0 205.985" fill="#7f8cd9" stroke="transparent" data-fill-palette-color="tertiary"></path></svg></g><defs></defs></svg><rect width="80.967888" height="247.2" fill="none" stroke="none" visibility="hidden"></rect></g></svg></g></svg>